<svg width="20px" height="20px" id="Layer_1" data-name="Layer 1" xmlns="http://www.w3.org/2000/svg" viewBox="0 0 15 15"><defs><style>.cls-1{fill:#da291c;}.cls-2{fill:#fff;}</style></defs><title>bus-icon</title><circle class="cls-1" cx="7.5" cy="7.5" r="7.5"/><path class="cls-2" d="M4.63,4.13a.36.36,0,0,0-.35.28L3.93,7a.29.29,0,0,0,0,.09.36.36,0,0,0,.36.36h6.62a.36.36,0,0,0,.35-.36.28.28,0,0,0,0-.09l-.36-2.62a.34.34,0,0,0-.34-.28ZM9.4,3.59a.27.27,0,0,0,0-.54H5.75a.27.27,0,1,0,0,.54ZM5.14,9.65A.61.61,0,0,0,4.53,9a.61.61,0,1,0,0,1.22h0A.61.61,0,0,0,5.14,9.65Zm5.49.61a.61.61,0,1,0,0-1.22.61.61,0,0,0-.62.61h0a.61.61,0,0,0,.61.61Zm-3.06-8a9.14,9.14,0,0,1,2.93.53c.57.24,1,.47,1.07,1.07L12,7.13V11.7h-.75v.71a.64.64,0,1,1-1.27,0V11.7H5.16v.71a.64.64,0,1,1-1.27,0V11.7H3.14V7.13l.43-3.32c.12-.6.51-.83,1.08-1.07a9.35,9.35,0,0,1,2.92-.53" transform="translate(-0.07 -0.14)"/></svg>
